<?xml version="1.0" encoding="utf-8"?>
<!-- Generator: Adobe Illustrator 25.0.0, SVG Export Plug-In . SVG Version: 6.00 Build 0)  -->
<svg version="1.1" id="Layer_1" xmlns="http://www.w3.org/2000/svg" xmlns:xlink="http://www.w3.org/1999/xlink" x="0px" y="0px"
	 viewBox="0 0 18.5227795 7.1431923" style="enable-background:new 0 0 18.5227795 7.1431923;" xml:space="preserve">
<style type="text/css">
	.st0{fill:#FFFFFF;}
</style>
<g id="link_1_" transform="translate(10.771 -3.622) rotate(45)">
	<g id="Group_158096" transform="translate(5.122 0)">
		<g id="Group_158095" transform="translate(0 0)">
			<path id="Path_26695" class="st0" d="M5.4474726-0.3931946C4.0533724-1.787437,1.7929742-1.7875521,0.3987319-0.393452
				C0.3986461-0.3933661,0.3985603-0.3932804,0.3984745-0.3931946l-2.9839988,2.9829988
				c-1.378005,1.4009285-1.3780053,3.6480694,0,5.0489979c0.2140837,0.2127285,0.4555385,0.3960052,0.7179997,0.5449996
				l0.545-0.5449996c0.2408932-0.3037119,0.323958-0.7034607,0.2239999-1.0779991
				c-0.0801296-0.0555196-0.1554-0.1177425-0.2249998-0.1859994c-0.688675-0.7004042-0.688675-1.8235955,0-2.5239995
				l2.9839988-2.9819989c0.7199451-0.6734507,1.8495153-0.6357597,2.5229659,0.0841853
				c0.6422701,0.6866121,0.6418476,1.7537104-0.0009665,2.4398136L2.2124739,5.3608036
				c0.2480073,0.739789,0.3242693,1.5263457,0.223,2.2999997c0.0089998-0.0080004,0.0190001-0.0139999,0.027-0.0220003
				l2.9849987-2.9839993C6.8411489,3.2607172,6.8411489,1.0008918,5.4474726-0.3931946z"/>
		</g>
	</g>
	<g id="Group_158098" transform="translate(0 5.378)">
		<g id="Group_158097" transform="translate(0 0)">
			<path id="Path_26696" class="st0" d="M5.6914744-0.8941964c-0.2137756-0.212657-0.4548903-0.3959311-0.717-0.5449998
				L4.4294748-0.8941964C4.1888709-0.5911359,4.1054654-0.1922728,4.2044749,0.1818033
				c0.0801353,0.0555118,0.1554065,0.1177358,0.2249999,0.1859999c0.6886744,0.700404,0.6886744,1.8235952,0,2.523999
				L1.2144756,6.1068015c-0.6850283,0.7089376-1.8150612,0.7283201-2.5239992,0.043292s-0.7283205-1.8150611-0.043292-2.523999
				c0.0141821-0.0146775,0.028615-0.0291104,0.0432923-0.0432925l2.1999996-2.1999993
				c-0.248042-0.7397816-0.3243045-1.5263461-0.223-2.2999992c-0.0089998,0.008-0.0190001,0.014-0.0279999,0.022
				L-2.571523,2.3208025c-1.3700545,1.4178779-1.331286,3.6779439,0.086592,5.0479984
				c1.3836057,1.3369384,3.5778003,1.3369384,4.9614062,0l3.2149992-3.2149987
				C7.0688238,2.7529941,7.0688238,0.5066117,5.6914744-0.8941964z"/>
		</g>
	</g>
</g>
</svg>
