<?xml version="1.0" encoding="utf-8"?>
<!-- Generator: Adobe Illustrator 25.0.0, SVG Export Plug-In . SVG Version: 6.00 Build 0)  -->
<svg version="1.1" id="Layer_1" xmlns="http://www.w3.org/2000/svg" xmlns:xlink="http://www.w3.org/1999/xlink" x="0px" y="0px"
	 viewBox="0 0 20.1331806 19.9860249" style="enable-background:new 0 0 20.1331806 19.9860249;" xml:space="preserve">
<style type="text/css">
	.st0{fill:#FFFFFF;}
</style>
<path id="Path_26714" class="st0" d="M10.0562372,0.0000256C4.5041203-0.0017597,0.0017858,4.4976759,0.0000005,10.0497923
	c-0.0015869,4.9480896,3.5976868,9.161582,8.4852371,9.9332342v-7.0250006H5.9332356v-2.9059982h2.5520024V7.8380232
	c-0.2068405-1.9480057,1.2046585-3.6948471,3.1526642-3.9016879c0.2150421-0.0228271,0.4317245-0.0259476,0.6473389-0.0093155
	c0.7538757,0.0117111,1.5058823,0.0785525,2.25,0.1999972v2.4730072h-1.2700043
	c-0.7955246-0.1053696-1.5258408,0.4541092-1.6312103,1.2496262c-0.0140686,0.1062164-0.0163422,0.2136612-0.0067902,0.3203735
	v1.8860016h2.788002l-0.4459991,2.9059982h-2.3420029v7.0240011c5.4858541-0.8552094,9.2397375-5.9956656,8.3845282-11.4815207
	C19.2473297,3.6009548,15.0190058-0.0110828,10.0562372,0.0000256z"/>
</svg>
