<?xml version="1.0" encoding="utf-8"?>
<!-- Generator: Adobe Illustrator 25.0.0, SVG Export Plug-In . SVG Version: 6.00 Build 0)  -->
<svg version="1.1" id="Layer_1" xmlns="http://www.w3.org/2000/svg" xmlns:xlink="http://www.w3.org/1999/xlink" x="0px" y="0px"
	 viewBox="0 0 18.8000011 15.3882809" style="enable-background:new 0 0 18.8000011 15.3882809;" xml:space="preserve">
<style type="text/css">
	.st0{fill:#FFFFFF;}
</style>
<path id="Path_26715" class="st0" d="M1.3000002,0.6876533c1.9795747,2.3675241,4.824554,3.844032,7.9000006,4.1000004
	c-0.3667507-1.492933,0.182291-3.0616271,1.3999996-3.9999998c1.5892124-1.1866937,3.8109779-1.015789,5.2000008,0.3999996
	c0.8856068-0.1279068,1.7360783-0.4340763,2.5-0.8999996c-0.2552395,0.8738012-0.8252869,1.6219893-1.6000004,2.1000004
	c0.7274895-0.0868759,1.4364243-0.2894287,2.1000004-0.6000004c-0.5211353,0.7649269-1.1627846,1.4403486-1.8999996,2
	c0.1200314,3.3143156-1.191431,6.520113-3.6000004,8.8000011C9.2000008,16.5876522,2.4000001,15.6876535,0,13.6876535
	c2.0323863,0.1888046,4.0627513-0.3811245,5.6999993-1.6000004C4.0896487,12.014245,2.675981,10.9932623,2.099999,9.4876528
	c0,0,1.3999996,0.1000004,1.6000004-0.2000008c-1.7488384-0.4354382-2.9823251-1.9978547-3-3.8000007
	c0.5246592,0.2856703,1.1042233,0.45613,1.6999998,0.5C2.4000001,5.8876529-0.5,3.7876537,1.3000002,0.6876533z"/>
</svg>
